PathFileType	4	(X/Y/Z)	Run_500 02
DataRate	CameraRate	NumFrames	NumMarkers	Units	OrigDataRate	OrigDataStartFrame	OrigNumFrames
120	120	7	42	mm	120	405	128
Frame#	Time	LASI			RASI			LPSI			RPSI			RTH1			RTH2			RTH3			LTH1			LTH2			LTH3			RTB1			RTB2			RTB3			LTB1			LTB2			LTB3			RCAL			RTOE			RMT5			LCAL			LTOE			LMT5			LACR			RACR			CLAV			C7			RUA1			RUA2			RUA3			RLEL			RMEL			LUA1			LUA2			LUA3			LLEL			LMEL			RFAsuperior			RFAradius			RFAulna			LFAsuperior			LFAradius			LFAulna		
		X1	Y1	Z1	X2	Y2	Z2	X3	Y3	Z3	X4	Y4	Z4	X5	Y5	Z5	X6	Y6	Z6	X7	Y7	Z7	X8	Y8	Z8	X9	Y9	Z9	X10	Y10	Z10	X11	Y11	Z11	X12	Y12	Z12	X13	Y13	Z13	X14	Y14	Z14	X15	Y15	Z15	X16	Y16	Z16	X17	Y17	Z17	X18	Y18	Z18	X19	Y19	Z19	X20	Y20	Z20	X21	Y21	Z21	X22	Y22	Z22	X23	Y23	Z23	X24	Y24	Z24	X25	Y25	Z25	X26	Y26	Z26	X27	Y27	Z27	X28	Y28	Z28	X29	Y29	Z29	X30	Y30	Z30	X31	Y31	Z31	X32	Y32	Z32	X33	Y33	Z33	X34	Y34	Z34	X35	Y35	Z35	X36	Y36	Z36	X37	Y37	Z37	X38	Y38	Z38	X39	Y39	Z39	X40	Y40	Z40	X41	Y41	Z41	X42	Y42	Z42	

405	  3.375000	765.177882	1005.193287	-485.246376	768.931702	990.850022	-247.260551	605.833180	1031.850832	-411.865028	611.768669	1041.359754	-324.408303	665.127212	807.883797	-211.694440	664.380293	675.531734	-242.322044	538.834606	601.275306	-238.828609	770.998616	871.260162	-544.192830	875.030452	796.142664	-522.478591	876.332307	642.968922	-510.274388	380.635095	477.732660	-305.948775	313.181460	518.616300	-252.589224	198.967420	507.554545	-317.588143	1002.765930	439.310205	-432.280098	975.137927	327.026865	-481.692760	1000.138032	249.663026	-407.237023	 97.779546	627.202831	-327.878948	  6.862641	427.723721	-332.601616	-12.950051	470.757476	-248.117748	911.954768	101.620764	-406.890824	1122.664824	157.081651	-386.995665	1111.031227	113.532885	-473.051355	714.244857	1469.328288	-542.572600	834.809750	1455.214850	-204.066217	864.299369	1411.479183	-388.245027	738.760187	1501.511763	-363.685380	837.691134	1345.605878	-139.914539	865.796213	1281.631993	-143.457058	785.711288	1260.581027	-70.875551	827.609509	1179.983845	-61.156511	746.132350	1151.383614	-95.643166	650.222489	1448.966884	-585.598055	576.724821	1408.249974	-564.033598	588.976760	1397.670540	-639.621896	508.117726	1335.439072	-693.645073	475.278689	1280.324123	-629.642393	883.409241	1188.693071	-126.333157	935.671343	1218.503374	-281.641124	938.938216	1152.434033	-276.393606	575.158519	1319.576994	-709.902693	736.582196	1253.624753	-666.455324	704.995143	1202.372642	-697.082329	
406	  3.383333	764.366184	1001.589683	-485.755740	769.898590	985.760857	-246.228935	604.545668	1024.276178	-408.986649	611.402138	1033.608586	-321.776281	670.319758	801.784491	-211.829170	673.328695	669.219471	-243.005588	550.617901	591.930806	-237.261647	769.740159	862.806238	-543.578890	870.850858	784.868907	-522.490470	868.732475	632.877598	-509.960401	389.635949	479.208240	-305.244701	326.498429	525.362365	-251.687243	212.141045	525.848703	-316.705969	993.874013	428.515634	-432.629913	966.660213	316.180447	-481.967732	994.061665	238.759489	-407.885269	121.125914	654.131499	-327.571382	 15.997034	461.510237	-327.371809	  1.650267	506.868422	-243.469732	905.272136	 94.479389	-406.354685	1116.607340	143.529819	-386.708703	1103.016860	 99.451122	-471.943328	717.808393	1462.665235	-546.230486	834.042408	1450.857357	-205.368625	864.646530	1405.543365	-388.633785	739.072975	1497.129905	-366.581899	833.622710	1342.102014	-140.142121	860.289849	1277.061125	-142.911663	779.281297	1259.184469	-70.636569	818.494272	1177.018903	-59.199873	735.723435	1151.171147	-94.080959	653.905457	1441.069997	-590.582484	579.860747	1398.792399	-568.331977	592.591215	1388.708683	-643.069430	513.328950	1325.175050	-698.038169	481.664784	1267.984273	-634.727800	875.767492	1180.569239	-123.276714	933.522882	1201.729859	-278.194647	932.987450	1135.872515	-269.668971	581.611569	1312.429741	-713.245637	744.768679	1254.556293	-666.729955	716.250544	1201.939993	-698.288865	
407	  3.391667	763.649848	996.809271	-486.850895	770.873993	980.031970	-245.574282	603.368955	1016.603802	-406.271727	611.121128	1025.017177	-318.955852	675.507419	794.831022	-212.017883	682.677958	662.306905	-243.072563	562.531442	582.098814	-235.344873	768.185287	854.068272	-541.919503	866.938551	774.228458	-522.055272	861.413581	622.784095	-509.333576	400.630657	479.621114	-303.279146	341.961610	531.070917	-250.184743	228.532507	541.854713	-315.320144	983.934471	416.896517	-432.736705	955.647039	304.385786	-481.333021	983.408399	226.776643	-407.788455	147.168861	677.891344	-327.647824	 29.959675	492.084218	-321.733376	 20.921706	539.277069	-238.873418	889.807230	 91.776831	-405.268653	1102.904437	125.662899	-385.739293	1085.953628	 84.195667	-470.820146	721.551566	1455.180201	-549.874671	832.357186	1445.711270	-206.363046	865.140355	1398.992429	-388.600573	739.371223	1492.154127	-369.701089	828.427940	1337.885703	-140.106682	853.502003	1271.567986	-142.421564	771.657688	1257.109849	-70.507888	808.210689	1173.601582	-57.199137	724.227138	1150.495156	-92.897167	657.929712	1432.006178	-596.007908	583.151734	1388.506394	-573.353180	596.798615	1378.382069	-647.037713	519.246535	1313.560623	-702.904768	488.962314	1254.371572	-640.212709	867.037745	1171.711687	-119.567147	930.640718	1183.429680	-273.313949	926.185518	1118.045347	-260.929983	588.575589	1304.201398	-717.233466	753.158412	1254.843397	-666.976948	728.145033	1200.705056	-699.284844	
408	  3.400000	762.772984	990.743223	-488.112030	771.994807	974.082155	-245.591051	601.938557	1008.806557	-404.133919	610.677497	1015.932771	-316.301814	680.892228	787.101380	-212.131669	692.112363	655.162455	-242.067222	574.331849	572.056876	-233.133721	766.002545	845.878144	-539.881934	863.048621	764.693337	-521.464037	854.731396	613.159878	-508.815469	413.765227	478.964849	-300.360732	359.557917	535.466072	-248.037385	247.741875	555.186413	-313.354869	973.134007	404.940484	-432.169147	941.482098	292.535689	-479.137031	966.513735	214.950349	-405.822699	175.612857	698.166556	-328.034282	 48.214335	519.013227	-316.105830	 44.304814	567.611692	-234.487061	864.485233	 92.706519	-403.173927	1079.869098	106.604326	-383.696599	1059.303845	 71.062315	-469.631556	725.392471	1447.131909	-553.349235	829.748808	1439.997975	-207.097425	865.869239	1391.941523	-388.308593	739.639738	1486.481571	-372.927917	822.196678	1333.056988	-139.878286	845.402550	1265.363616	-141.977411	762.867429	1254.478849	-70.569960	796.805714	1169.836520	-55.218688	712.242247	1149.385045	-92.271309	662.200532	1421.978143	-601.549305	586.636193	1377.485837	-578.991082	601.701121	1366.874604	-651.512740	526.049779	1300.712950	-708.093849	497.276532	1239.563135	-646.022983	857.239940	1162.328193	-115.271071	926.817989	1163.825809	-267.093981	918.309534	1099.234791	-250.693111	596.249769	1295.028917	-721.785463	761.719773	1254.317996	-667.113399	740.677213	1198.617574	-699.995277	
409	  3.408333	761.504738	983.604180	-488.828488	773.217899	967.950375	-246.197628	599.899985	1000.842921	-402.750496	609.685000	1006.504670	-314.143460	686.480709	779.047998	-212.124151	701.407338	648.273751	-239.851693	586.222997	562.173366	-230.573742	762.660886	838.839444	-538.442421	858.707668	756.738490	-521.324577	849.455388	605.214696	-509.227938	429.124937	477.318546	-296.753118	379.208321	538.394764	-245.279684	269.416889	565.693076	-310.863759	961.252692	393.994941	-430.791583	923.617516	282.658763	-475.820506	942.776081	205.404750	-401.897998	206.367829	714.549423	-328.538224	 70.318565	542.001749	-311.003375	 71.204285	591.692976	-230.408254	830.397001	 95.493048	-400.146096	1047.674222	 90.786880	-380.740773	1024.446175	 62.721213	-468.267227	729.279231	1438.881738	-556.548778	826.338409	1434.013999	-207.562090	866.952584	1384.504739	-387.851231	739.682979	1480.063379	-376.111237	815.035991	1327.773744	-139.520226	835.984061	1258.744937	-141.460620	752.942097	1251.474979	-70.866993	784.330471	1165.849140	-53.294669	700.382204	1147.867929	-92.344725	666.710994	1411.163702	-606.992460	590.430957	1365.778372	-585.071577	607.334563	1354.373825	-656.455290	533.921968	1286.730302	-713.485231	506.727839	1223.673852	-652.049226	846.381692	1152.634362	-110.449638	921.890282	1143.192000	-259.622498	909.165361	1079.832599	-239.455625	604.824369	1284.922711	-726.639536	770.478395	1252.889219	-667.084407	753.810813	1195.729883	-700.359506	
410	  3.416667	759.747100	975.995046	-488.626200	774.267682	961.427779	-247.103492	597.147727	992.977258	-401.818160	607.865633	996.959233	-312.543675	692.113273	771.392072	-212.038220	710.615809	642.157719	-236.723810	598.931853	552.840767	-227.537225	757.653058	833.259754	-538.307682	853.559919	750.803241	-522.185799	845.852846	600.034412	-511.257375	446.826342	474.798079	-292.685393	400.848591	539.832610	-242.068638	293.295133	573.447386	-308.035651	947.743452	385.504028	-429.017549	902.254480	276.643405	-472.804493	913.672227	199.777434	-397.264364	239.321468	726.654403	-328.767034	 95.736924	560.780435	-306.714560	100.821500	611.344611	-226.710012	790.786362	 98.521391	-396.776962	1008.892859	 81.114345	-377.570377	984.400725	 59.525995	-466.718213	733.152510	1430.835333	-559.479095	822.362162	1428.061137	-207.652624	868.500151	1376.838802	-387.087565	739.297472	1473.111566	-379.168436	807.110546	1322.299818	-139.067219	825.295197	1252.063536	-140.722911	741.926188	1248.357773	-71.446415	770.821677	1161.797341	-51.476531	688.833941	1146.014448	-93.178795	671.510960	1399.669794	-612.258156	594.675802	1353.369554	-591.402028	613.681943	1341.058687	-661.769261	543.034645	1271.696016	-718.985327	517.471403	1206.881649	-658.112050	834.412026	1142.859394	-105.163879	915.754787	1121.883763	-250.881951	898.641576	1060.311506	-227.338471	614.435374	1273.797257	-731.347786	779.513396	1250.606286	-666.849780	767.512450	1192.190961	-700.341573	
411	  3.425000	757.577836	968.818462	-487.949001	774.728387	954.447629	-248.108651	593.899232	985.965395	-400.638761	605.279064	988.049183	-311.224810	697.628729	764.849927	-211.898544	720.114456	637.250780	-233.244264	613.414176	544.433650	-223.965314	750.916924	829.116912	-539.476016	847.528918	747.014205	-524.056418	842.722056	597.460176	-514.742017	467.078813	471.563947	-288.483633	424.493437	539.815769	-238.664692	319.184954	578.588756	-305.090820	932.085553	379.839276	-427.690020	878.364118	274.634294	-471.433077	882.017732	197.905236	-393.679456	274.032013	734.392335	-328.199750	123.770651	575.068292	-303.201381	132.196467	626.267340	-223.426412	749.459063	101.055753	-393.874220	967.280193	 77.257046	-375.056346	942.496345	 59.589881	-465.213587	736.853020	1423.336188	-562.273876	818.098631	1422.425589	-207.247611	870.483265	1369.244494	-385.671590	738.509237	1466.209196	-382.128639	798.686384	1317.016080	-138.559050	813.520637	1245.737302	-139.740779	729.920477	1245.455309	-72.431597	756.322942	1157.914062	-49.886014	677.311858	1143.988890	-94.773928	676.583084	1387.610648	-617.303101	599.443705	1340.209174	-597.792425	620.735111	1327.137893	-667.257825	553.562849	1255.731430	-724.482960	529.709066	1189.454908	-663.986790	821.226922	1133.309042	-99.551219	908.307116	1100.351491	-240.771325	886.653143	1041.166736	-214.157643	625.208447	1261.616279	-735.428070	788.959276	1247.602209	-666.316455	781.824575	1188.193577	-699.884322	
